<svg xmlns="http://www.w3.org/2000/svg" viewBox="0 0 40 40" shape-rendering="crispEdges">
  <path fill="#071014" d="M13 5h14v8H13z"/>
  <path fill="#e9fbef" d="M14 6h12v6H14z"/>
  <path fill="#071014" d="M16 8h8v4H16z"/>
  <path fill="#071014" d="M4 12h32v22H4z"/>
  <path fill="#2f7d4d" d="M5 13h30v20H5z"/>
  <path fill="#58c07f" d="M5 13h30v5H5z"/>
  <path fill="#1d5c38" d="M5 29h30v4H5z"/>
  <path fill="#e9fbef" d="M6 15h3v5H6zm25 0h3v5h-3z"/>
  <path fill="#071014" d="M14 19h12v12H14z"/>
  <path fill="#f2fbe8" d="M15 20h10v10H15z"/>
  <path fill="#2f7d4d" d="M19 20h2v10h-2z"/>
  <path fill="#2f7d4d" d="M15 24h10v2H15z"/>
</svg>
